# xmcd CD database file
#
# Track frame offsets:
#	150
#	7355
#	29192
#	52227
#	74677
#	111129
#	127563
#	143508
#	150721
#	175328
#	191925
#	208322
#	225779
#	246051
#
# Disc length: 3443 seconds
#
# Revision: 0
# Processed by: cddbd v1.5.2PL0 Copyright (c) Steve Scherf et al.
# Submitted via: CDex 1.51
#
DISCID=ce0d710e
DTITLE=Rick L. Blues - Blue September
DYEAR=2006
DGENRE=Blues
TTITLE0=Break the house at the Casino
TTITLE1=Belle roots 1 and 2
TTITLE2=So glad that I have U
TTITLE3=Food 4 friends
TTITLE4=Out of the rain
TTITLE5=Grange blues
TTITLE6=Mama Blues
TTITLE7=Rix dream swing
TTITLE8=Blue September
TTITLE9=Ch'partirai plus
TTITLE10=2nd avenue
TTITLE11=Traite-moi comme un chien
TTITLE12=Rixmas boogie
TTITLE13=Edna
EXTD=YEAR: 2006
EXTT0=
EXTT1=
EXTT2=
EXTT3=
EXTT4=
EXTT5=
EXTT6=
EXTT7=
EXTT8=
EXTT9=
EXTT10=
EXTT11=
EXTT12=
EXTT13=
PLAYORDER=
